<svg width="40" height="40" viewBox="0 0 40 40" fill="none" xmlns="http://www.w3.org/2000/svg">
<rect width="40" height="40" rx="10" fill="#EF8829"/>
<path d="M26.7448 26.7851C27.2087 26.3245 27.9522 26.3245 28.416 26.7851L31.4816 29.2597H31.5348C32.1551 29.8866 32.1551 30.903 31.5348 31.5298C30.9146 32.1567 29.9091 32.1567 29.2889 31.5298L26.7448 28.6142L26.6483 28.5052C26.4685 28.2776 26.3692 27.9938 26.3692 27.6996C26.3692 27.3565 26.5043 27.0274 26.7448 26.7851ZM18.2932 8C21.0231 8 23.6412 9.09612 25.5715 11.0472C27.5019 12.9983 28.5863 15.6446 28.5863 18.4039C28.5863 24.1498 23.9779 28.8078 18.2932 28.8078C12.6084 28.8078 8 24.1498 8 18.4039C8 12.658 12.6084 8 18.2932 8Z" fill="white"/>
</svg>
