<svg width="32" height="32" viewBox="0 0 32 32" fill="none" xmlns="http://www.w3.org/2000/svg">
<g clip-path="url(#clip0_1_209)">
<path d="M27.3 7.29012C27.3 7.29012 8.30001 7.14012 8.01001 7.40012L9.61001 10.2501L18.32 16.5401C18.4884 16.6585 18.6892 16.722 18.895 16.722C19.1008 16.722 19.3016 16.6585 19.47 16.5401L27.17 10.5401V20.0901H18.87L21.75 21.8401L27.75 21.6901C29.28 21.6401 29.28 20.8001 29.28 20.8001V8.21012C29.17 7.25012 27.3 7.29012 27.3 7.29012ZM19.49 14.2901C19.3169 14.4199 19.1064 14.4901 18.89 14.4901C18.6736 14.4901 18.4631 14.4199 18.29 14.2901L10.93 9.12012H26.03L19.49 14.2901Z" fill="white" stroke="white" stroke-width="0.5" stroke-miterlimit="10"/>
<path d="M5.45006 9.36009C5.52168 9.29693 5.60598 9.24982 5.6973 9.2219C5.78862 9.19398 5.88486 9.18591 5.97955 9.19822C6.07425 9.21053 6.16522 9.24294 6.24637 9.29328C6.32751 9.34362 6.39696 9.41072 6.45006 9.49009L8.78006 13.1001C8.80321 13.2539 8.78158 13.4112 8.71774 13.553C8.6539 13.6949 8.55055 13.8154 8.42006 13.9001L7.84006 14.4501C7.51443 14.7498 7.31137 15.1595 7.27006 15.6001C7.24126 16.23 7.42822 16.8508 7.80006 17.3601C8.75113 19.0406 10.1315 20.4382 11.8001 21.4101C12.1985 21.5552 12.6165 21.6395 13.0401 21.6601C13.3032 21.6659 13.5643 21.6134 13.8047 21.5061C14.045 21.3989 14.2586 21.2398 14.4301 21.0401L15.0901 20.3001C15.0901 20.3001 15.4001 19.5801 16.0901 20.1201L19.5101 22.3801C19.6207 22.4197 19.722 22.4815 19.8078 22.5618C19.8936 22.6421 19.9621 22.7391 20.0089 22.8469C20.0558 22.9546 20.0801 23.0709 20.0803 23.1884C20.0804 23.3059 20.0566 23.4222 20.0101 23.5301L19.2201 24.3401C18.7681 24.7262 18.2752 25.0616 17.7501 25.3401C16.67 25.7289 15.4912 25.7465 14.4001 25.3901C11.9653 24.5489 9.74499 23.1833 7.89606 21.3897C6.04714 19.596 4.61473 17.4182 3.70006 15.0101C3.70006 15.0101 2.70006 12.2501 3.70006 10.9601L5.45006 9.36009Z" fill="white" stroke="white" stroke-width="0.5" stroke-miterlimit="10"/>
</g>
<defs>
<clipPath id="clip0_1_209">
<rect width="26.61" height="18.91" fill="white" transform="translate(3 7)"/>
</clipPath>
</defs>
</svg>
