<svg width="32" height="32" viewBox="0 0 32 32" fill="none" xmlns="http://www.w3.org/2000/svg">
<path d="M2.66669 17.7167C2.66669 14.5012 5.17057 11.8618 8.30824 11.7136L8.58669 11.707H14.9734V19.8465C14.9734 20.4299 15.4267 20.8911 16 20.8911C16.5134 20.8911 16.9483 20.5036 17.0172 19.9896L17.0267 19.8465V11.707H23.4C26.5734 11.707 29.1805 14.2546 29.3269 17.4594L29.3334 17.7438V24.3504C29.3334 27.5791 26.8295 30.2189 23.6918 30.3671L23.4134 30.3737H8.60002C5.41373 30.3737 2.81882 27.8133 2.67314 24.6202L2.66669 24.3369V17.7167ZM11.4003 8.32008C11.0245 7.95644 10.9904 7.38344 11.2878 6.98174L11.387 6.86675L15.267 2.97341C15.467 2.77341 15.7203 2.66675 16.0003 2.66675C16.2136 2.66675 16.427 2.73501 16.5993 2.86472L16.7203 2.97341L20.6003 6.86675C20.8003 7.06675 20.907 7.33342 20.907 7.58675C20.907 7.85342 20.8003 8.12008 20.6003 8.32008C20.2367 8.68372 19.6636 8.71678 19.2619 8.41926L19.147 8.32008L17.027 6.18675V11.7067H14.9736V6.18675L12.8536 8.32008C12.4536 8.72008 11.8003 8.72008 11.4003 8.32008Z" fill="white"/>
</svg>
